<mxfile host="app.diagrams.net" modified="2023-05-13T06:36:56.443Z" agent="Mozilla/5.0 (X11; Linux x86_64) AppleWebKit/537.36 (KHTML, like Gecko) Chrome/102.0.0.0 Safari/537.36" version="21.3.0" etag="tRw4o7mNprdx3D5jY6ib" type="device">
  <diagram id="HFX7obNe9fHrtf_4Ax5Q" name="ページ1">
    <mxGraphModel dx="981" dy="518" grid="1" gridSize="10" guides="1" tooltips="1" connect="1" arrows="1" fold="1" page="1" pageScale="1" pageWidth="1654" pageHeight="1169" math="0" shadow="0">
      <root>
        <mxCell id="0" />
        <mxCell id="1" parent="0" />
        <mxCell id="gkMj3nxZAdAaMBzP1wNI-1" value="A" style="rounded=0;whiteSpace=wrap;html=1;" vertex="1" parent="1">
          <mxGeometry x="250" y="160" width="120" height="60" as="geometry" />
        </mxCell>
        <mxCell id="gkMj3nxZAdAaMBzP1wNI-2" value="B" style="rounded=0;whiteSpace=wrap;html=1;" vertex="1" parent="1">
          <mxGeometry x="490" y="160" width="120" height="60" as="geometry" />
        </mxCell>
        <mxCell id="gkMj3nxZAdAaMBzP1wNI-3" value="" style="endArrow=classic;html=1;rounded=0;exitX=1;exitY=0.5;exitDx=0;exitDy=0;entryX=0;entryY=0.5;entryDx=0;entryDy=0;" edge="1" parent="1" source="gkMj3nxZAdAaMBzP1wNI-1" target="gkMj3nxZAdAaMBzP1wNI-2">
          <mxGeometry width="50" height="50" relative="1" as="geometry">
            <mxPoint x="420" y="290" as="sourcePoint" />
            <mxPoint x="470" y="240" as="targetPoint" />
          </mxGeometry>
        </mxCell>
        <mxCell id="gkMj3nxZAdAaMBzP1wNI-4" value="" style="rounded=0;whiteSpace=wrap;html=1;" vertex="1" parent="1">
          <mxGeometry x="250" y="250" width="120" height="60" as="geometry" />
        </mxCell>
        <mxCell id="gkMj3nxZAdAaMBzP1wNI-5" value="" style="rounded=0;whiteSpace=wrap;html=1;" vertex="1" parent="1">
          <mxGeometry x="490" y="250" width="120" height="60" as="geometry" />
        </mxCell>
        <mxCell id="gkMj3nxZAdAaMBzP1wNI-8" value="" style="rounded=0;whiteSpace=wrap;html=1;labelBackgroundColor=#99FFCC;" vertex="1" parent="1">
          <mxGeometry x="250" y="360" width="120" height="60" as="geometry" />
        </mxCell>
        <mxCell id="gkMj3nxZAdAaMBzP1wNI-9" value="" style="rounded=0;whiteSpace=wrap;html=1;" vertex="1" parent="1">
          <mxGeometry x="490" y="360" width="120" height="60" as="geometry" />
        </mxCell>
        <mxCell id="gkMj3nxZAdAaMBzP1wNI-11" value="E" style="rounded=0;whiteSpace=wrap;html=1;labelBackgroundColor=none;fillColor=#99FFCC;" vertex="1" parent="1">
          <mxGeometry x="250" y="450" width="120" height="60" as="geometry" />
        </mxCell>
        <mxCell id="gkMj3nxZAdAaMBzP1wNI-12" value="F" style="rounded=0;whiteSpace=wrap;html=1;fontColor=#007FFF;" vertex="1" parent="1">
          <mxGeometry x="490" y="450" width="120" height="60" as="geometry" />
        </mxCell>
        <mxCell id="gkMj3nxZAdAaMBzP1wNI-14" value="" style="endArrow=none;html=1;rounded=0;" edge="1" parent="1">
          <mxGeometry width="50" height="50" relative="1" as="geometry">
            <mxPoint x="426" y="560" as="sourcePoint" />
            <mxPoint x="426" y="100" as="targetPoint" />
          </mxGeometry>
        </mxCell>
        <mxCell id="gkMj3nxZAdAaMBzP1wNI-7" value="" style="endArrow=classic;startArrow=classic;html=1;rounded=0;entryX=0;entryY=0.5;entryDx=0;entryDy=0;exitX=1;exitY=0.5;exitDx=0;exitDy=0;jumpStyle=arc;" edge="1" parent="1" source="gkMj3nxZAdAaMBzP1wNI-4" target="gkMj3nxZAdAaMBzP1wNI-5">
          <mxGeometry width="50" height="50" relative="1" as="geometry">
            <mxPoint x="390" y="450" as="sourcePoint" />
            <mxPoint x="440" y="400" as="targetPoint" />
          </mxGeometry>
        </mxCell>
        <mxCell id="gkMj3nxZAdAaMBzP1wNI-13" value="" style="endArrow=classic;startArrow=classic;html=1;rounded=0;entryX=0;entryY=0.5;entryDx=0;entryDy=0;exitX=1;exitY=0.5;exitDx=0;exitDy=0;shape=link;" edge="1" parent="1" source="gkMj3nxZAdAaMBzP1wNI-11" target="gkMj3nxZAdAaMBzP1wNI-12">
          <mxGeometry width="50" height="50" relative="1" as="geometry">
            <mxPoint x="390" y="650" as="sourcePoint" />
            <mxPoint x="440" y="600" as="targetPoint" />
          </mxGeometry>
        </mxCell>
        <mxCell id="gkMj3nxZAdAaMBzP1wNI-10" value="" style="endArrow=classic;html=1;rounded=0;exitX=1;exitY=0.5;exitDx=0;exitDy=0;entryX=0;entryY=0.5;entryDx=0;entryDy=0;metaEdit=0;jumpStyle=gap;" edge="1" parent="1" source="gkMj3nxZAdAaMBzP1wNI-8" target="gkMj3nxZAdAaMBzP1wNI-9">
          <mxGeometry width="50" height="50" relative="1" as="geometry">
            <mxPoint x="420" y="490" as="sourcePoint" />
            <mxPoint x="470" y="440" as="targetPoint" />
          </mxGeometry>
        </mxCell>
      </root>
    </mxGraphModel>
  </diagram>
</mxfile>
